<svg xmlns="http://www.w3.org/2000/svg" width="512" height="512" viewBox="0 0 512 512">
<g>
<path d="M 510.62 227.94 C510.98,232.37 511.45,236.00 511.64,236.00 C511.84,236.00 512.00,182.90 512.00,118.00 L 512.00 512.00 L 511.84 394.25 C511.75,330.66 511.53,279.95 511.33,279.95 C511.33,279.95 511.32,279.97 511.32,280.00 C505.55,336.30 481.61,387.67 442.35,428.01 L 430.17 440.53 L 431.63 446.01 C433.49,453.02 432.73,458.78 428.92,466.69 C421.07,482.97 401.21,488.42 386.09,478.47 C383.19,476.56 380.47,475.00 380.04,475.00 C379.61,475.00 374.59,477.22 368.88,479.93 C349.93,488.92 326.01,496.06 302.54,499.71 C286.81,502.16 248.81,502.13 233.20,499.66 C210.03,495.98 187.88,489.52 168.50,480.79 L 167.92 480.53 C157.82,475.98 155.31,474.85 153.47,475.52 C152.83,475.76 152.26,476.22 151.49,476.83 C147.06,480.31 139.41,482.31 132.59,481.76 C113.99,480.27 100.02,461.35 104.92,444.27 C105.82,441.14 105.59,440.79 95.62,430.78 C61.29,396.29 37.69,352.50 27.93,305.19 C25.29,292.39 23.00,272.50 23.00,262.36 C23.00,254.75 22.85,254.18 20.75,253.65 C16.87,252.67 9.38,247.36 6.45,243.52 C4.90,241.49 2.83,237.51 1.85,234.67 C0.12,229.66 0.06,233.86 0.03,370.75 L 0.00 512.00 L 0.00 0.00 L 0.07 110.25 C0.12,200.66 0.36,219.78 1.40,216.50 C5.19,204.51 13.67,196.90 25.07,195.25 L 30.24 194.50 L 34.99 180.00 C40.35,163.63 46.80,148.73 54.25,135.50 C60.90,123.68 61.54,123.00 66.08,123.00 C68.97,123.00 70.34,123.62 71.93,125.63 C73.07,127.08 74.00,128.95 74.00,129.79 C74.00,130.62 72.03,134.72 69.63,138.90 C60.23,155.24 52.86,172.08 47.97,188.38 L 45.31 197.27 L 51.76 203.72 L 58.21 210.18 L 69.36 208.15 C92.60,203.91 106.11,202.37 132.43,200.98 C142.84,200.42 151.41,199.87 151.47,199.74 C153.28,195.88 157.91,190.59 161.61,188.14 C167.82,184.02 172.94,182.71 181.06,183.17 L 187.67 183.55 L 191.13 178.85 C198.80,168.44 215.82,149.42 227.56,138.14 L 240.00 126.18 L 238.41 119.94 C237.35,115.83 237.03,111.95 237.45,108.58 L 238.09 103.46 L 223.29 95.81 C205.22,86.47 191.57,80.63 174.56,74.97 C162.11,70.82 161.58,70.73 160.56,72.58 C158.09,77.05 149.76,83.92 144.71,85.64 C137.09,88.24 128.20,87.85 121.72,84.64 L 116.50 82.05 L 104.49 94.02 C94.90,103.57 91.91,106.00 89.69,106.00 C86.21,106.00 82.00,101.95 82.00,98.60 C82.00,95.56 90.07,85.81 100.08,76.76 C106.63,70.85 107.13,70.12 106.05,68.10 C105.41,66.89 104.63,62.88 104.33,59.20 C103.01,42.73 115.38,28.61 132.31,27.27 C140.13,26.65 145.44,28.08 151.99,32.59 L 157.17 36.15 L 169.83 30.69 C197.61,18.73 220.95,13.17 252.74,10.95 C291.71,8.23 333.35,15.81 369.09,32.14 L 375.69 35.15 L 380.56 32.06 C388.99,26.72 397.09,25.65 406.97,28.58 C413.85,30.63 421.90,38.06 425.07,45.30 C427.44,50.70 428.19,59.69 426.76,65.50 C426.07,68.30 426.54,68.98 434.05,75.86 L 442.07 83.22 L 446.48 82.11 C461.83,78.24 474.83,83.75 482.03,97.17 C485.04,102.77 485.44,104.38 485.45,111.11 C485.47,117.76 485.06,119.53 482.24,125.01 L 479.00 131.29 L 485.42 143.91 C488.95,150.85 493.23,160.05 494.94,164.34 C502.28,182.84 509.19,210.85 510.62,227.94 ZM 156.45 430.91 C158.63,433.16 160.55,435.00 160.73,435.00 C160.91,435.00 167.01,432.65 174.28,429.78 C189.75,423.67 216.18,410.84 231.63,401.94 C276.46,376.12 320.24,339.45 352.55,300.64 L 361.59 289.78 L 359.04 284.65 C357.02,280.56 356.47,277.87 356.36,271.57 L 356.23 263.64 L 348.58 259.79 C318.30,244.56 273.72,229.97 236.50,223.13 C213.46,218.90 208.00,218.38 208.00,220.44 C208.00,223.01 204.25,229.72 200.47,233.90 C198.54,236.03 194.32,238.93 190.91,240.46 C185.58,242.85 183.81,243.16 177.22,242.83 L 169.66 242.44 L 165.46 251.47 C156.35,271.05 147.10,299.66 142.50,322.45 C137.62,346.62 136.56,358.55 136.56,389.00 C136.56,419.05 136.96,422.00 141.07,422.00 C144.37,422.00 152.24,426.56 156.45,430.91 ZM 250.00 486.32 C259.23,487.27 280.82,486.85 292.44,485.49 C316.87,482.63 342.42,475.56 362.45,466.12 L 372.50 461.38 L 372.17 454.24 C371.89,448.19 372.25,446.18 374.56,441.06 C378.35,432.60 386.31,425.52 394.13,423.65 C395.69,423.28 397.02,422.10 397.40,420.76 C397.75,419.52 398.33,409.74 398.68,399.04 C399.29,380.52 399.43,379.47 401.62,377.29 C404.56,374.35 409.29,374.29 412.15,377.15 C414.25,379.25 414.29,379.77 413.73,399.90 C413.41,411.23 412.86,421.26 412.49,422.19 C412.00,423.46 412.85,424.39 415.95,425.98 L 420.07 428.08 L 424.30 424.61 C429.93,420.00 444.63,403.29 452.72,392.32 C462.26,379.37 476.00,355.39 476.00,351.68 C476.00,350.11 460.33,335.36 443.58,321.15 C431.65,311.04 408.89,293.98 407.38,294.02 C406.90,294.03 405.51,294.82 404.30,295.77 L 402.11 297.50 L 404.02 304.50 C407.51,317.25 411.04,338.76 410.07,341.32 C408.76,344.75 403.82,346.58 400.07,345.03 C396.45,343.53 396.44,343.51 393.42,327.17 C392.06,319.81 390.24,311.23 389.37,308.10 L 387.79 302.42 L 382.14 301.31 C379.04,300.70 375.81,299.92 374.97,299.58 C373.88,299.14 371.34,301.52 366.27,307.73 C339.03,341.09 302.97,373.63 265.31,398.82 C240.20,415.62 205.09,434.07 179.32,444.02 L 165.15 449.49 L 164.52 453.99 C164.17,456.47 163.68,459.23 163.42,460.11 C163.06,461.34 165.39,462.80 173.23,466.28 C197.71,477.12 221.80,483.42 250.00,486.32 ZM 104.39 417.75 C109.85,423.39 114.47,428.00 114.67,428.00 C114.87,428.00 116.50,427.03 118.31,425.85 L 121.59 423.70 L 121.55 391.10 C121.52,356.09 122.39,345.83 127.58,320.00 C133.01,292.97 144.21,259.31 154.54,238.92 L 157.14 233.78 L 155.13 231.64 C152.52,228.86 149.05,221.16 149.02,218.09 L 149.00 215.69 L 135.25 216.33 C127.69,216.68 115.88,217.65 109.00,218.50 C96.53,220.02 70.30,223.57 64.38,224.54 C61.47,225.01 61.17,225.44 60.11,230.85 C58.12,240.95 50.69,249.81 41.38,253.18 C38.07,254.38 38.00,254.53 38.00,260.15 C38.00,263.31 38.69,271.21 39.54,277.70 C46.48,330.99 70.38,382.61 104.39,417.75 ZM 386.50 241.26 C389.25,241.46 392.21,241.71 393.08,241.82 C395.65,242.11 412.13,211.68 422.53,187.41 C428.26,174.06 436.18,152.69 438.53,144.24 L 440.27 137.99 L 435.69 133.96 C433.11,131.68 429.89,127.44 428.31,124.21 C424.59,116.65 424.36,104.88 427.80,98.29 C429.01,95.97 430.00,93.72 430.00,93.29 C430.00,92.86 427.12,89.92 423.59,86.77 L 417.19 81.05 L 411.35 84.03 C403.06,88.26 397.79,88.74 388.93,86.05 C382.70,84.16 380.85,83.01 375.72,77.88 L 369.76 71.92 L 363.13 74.10 C344.13,80.35 316.98,92.33 302.24,100.97 L 296.99 104.05 L 297.61 109.36 C298.04,112.96 297.72,116.47 296.62,120.25 L 294.99 125.83 L 311.81 142.66 C321.05,151.92 332.58,164.45 337.42,170.50 C349.74,185.91 366.23,211.15 374.50,227.26 L 381.50 240.90 ZM 470.80 324.97 C471.79,325.88 472.70,326.73 473.54,327.51 C478.54,332.16 481.00,334.46 482.67,333.98 C484.57,333.43 485.43,329.31 487.84,321.00 C504.25,264.30 498.34,201.85 471.69,150.50 C468.53,144.42 467.34,141.88 465.42,141.08 C464.07,140.51 462.35,140.81 459.32,141.34 C459.00,141.40 458.67,141.46 458.32,141.52 C455.22,142.05 455.03,142.41 450.96,154.78 C442.01,182.04 427.67,214.63 414.18,238.38 C410.78,244.36 408.00,249.45 408.00,249.69 C408.00,249.94 409.12,251.60 410.48,253.39 C414.48,258.62 416.12,264.64 415.90,273.21 L 415.71 280.92 L 427.01 289.01 C441.22,299.18 455.78,311.14 470.80,324.97 ZM 357.55 247.33 C363.42,250.38 364.34,250.50 366.06,248.42 C367.17,247.08 366.65,245.37 362.59,237.17 C346.75,205.18 319.72,169.27 293.60,145.56 L 285.00 137.75 L 280.03 139.89 C270.93,143.81 263.84,143.65 253.79,139.33 L 250.08 137.73 L 240.71 146.34 C230.75,155.47 215.96,171.69 206.44,183.88 C201.67,189.99 200.88,191.54 201.84,192.88 C202.49,193.77 204.01,196.43 205.22,198.79 C206.48,201.23 208.31,203.25 209.47,203.48 C210.58,203.70 216.68,204.62 223.00,205.52 C252.74,209.77 288.54,219.05 317.50,230.02 C329.17,234.44 350.43,243.63 357.55,247.33 ZM 239.46 87.35 L 245.33 90.89 L 249.49 87.90 C260.09,80.29 275.14,80.24 285.54,87.78 L 289.41 90.59 L 306.45 81.87 C325.07,72.34 340.03,65.96 355.50,60.94 C361.00,59.16 365.79,57.43 366.15,57.10 C366.50,56.77 367.09,54.65 367.46,52.39 L 368.13 48.27 L 358.81 44.23 C317.59,26.35 273.41,21.25 227.17,29.05 C202.18,33.27 163.97,47.01 164.02,51.77 C164.04,55.06 165.68,56.03 178.56,60.37 C201.28,68.01 224.24,78.18 239.46,87.35 ZM 170.98 226.18 C175.64,228.61 182.63,228.52 186.81,225.98 C190.41,223.78 193.94,217.24 193.98,212.71 C194.01,208.58 190.37,202.20 186.71,199.96 C182.38,197.32 174.58,197.35 170.19,200.02 C166.67,202.17 163.06,208.73 163.02,213.04 C162.99,217.28 167.17,224.18 170.98,226.18 ZM 129.62 72.00 C133.02,73.05 138.35,72.39 142.12,70.44 C146.26,68.30 149.00,63.06 149.00,57.28 C149.00,38.06 121.09,36.63 119.25,55.76 C118.54,63.10 122.89,69.91 129.62,72.00 ZM 23.02 238.15 C33.19,243.60 45.00,236.32 45.00,224.60 C44.99,217.79 42.28,213.45 36.41,210.86 C25.36,205.97 13.90,214.53 15.26,226.63 C15.87,232.05 18.26,235.60 23.02,238.15 ZM 379.42 285.04 C386.60,288.69 395.95,285.86 399.52,278.97 C400.33,277.39 401.00,273.89 401.00,271.20 C401.00,259.42 388.84,252.40 378.60,258.27 C368.24,264.21 368.71,279.59 379.42,285.04 ZM 387.94 69.30 C390.61,71.54 392.12,72.00 396.83,72.00 C406.69,71.99 412.00,66.84 412.00,57.30 C411.99,48.41 405.68,42.01 396.90,42.00 C382.71,41.99 376.82,59.94 387.94,69.30 ZM 394.24 466.01 C396.22,467.21 399.27,467.99 402.00,467.99 C416.61,467.99 422.42,450.26 410.96,440.62 C408.36,438.43 406.86,438.00 401.88,438.00 C396.35,438.00 395.63,438.27 391.79,441.86 C387.99,445.40 387.62,446.20 387.27,451.61 C386.83,458.48 388.89,462.75 394.24,466.01 ZM 261.00 125.79 C271.20,130.99 282.38,123.68 282.38,111.82 C282.38,96.68 261.70,91.51 254.24,104.78 C249.86,112.58 252.76,121.59 261.00,125.79 ZM 127.12 465.12 C137.07,470.41 149.00,463.31 149.00,452.09 C149.00,442.65 141.79,435.49 133.14,436.35 C125.46,437.11 119.00,443.99 119.01,451.40 C119.01,456.61 122.62,462.72 127.12,465.12 ZM 446.90 123.73 C451.89,127.07 459.77,126.90 463.96,123.38 C468.14,119.87 470.00,115.98 470.00,110.80 C469.98,95.78 449.86,90.35 441.99,103.24 C438.02,109.75 440.32,119.33 446.90,123.73 Z" fill="rgb(4,4,5)"/>
<path d="M 156.45 430.91 C152.24,426.56 144.37,422.00 141.07,422.00 C136.96,422.00 136.56,419.05 136.56,389.00 C136.56,358.55 137.62,346.62 142.50,322.45 C147.10,299.66 156.35,271.05 165.46,251.47 L 169.66 242.44 L 177.22 242.83 C183.81,243.16 185.58,242.85 190.91,240.46 C194.32,238.93 198.54,236.03 200.47,233.90 C204.25,229.72 208.00,223.01 208.00,220.44 C208.00,218.38 213.46,218.90 236.50,223.13 C273.72,229.97 318.30,244.56 348.58,259.79 L 356.23 263.64 L 356.36 271.57 C356.47,277.87 357.02,280.56 359.04,284.65 L 361.59 289.78 L 352.55 300.64 C320.24,339.45 276.46,376.12 231.63,401.94 C216.18,410.84 189.75,423.67 174.28,429.78 C167.01,432.65 160.91,435.00 160.73,435.00 C160.55,435.00 158.63,433.16 156.45,430.91 ZM 250.00 486.32 C221.80,483.42 197.71,477.12 173.23,466.28 C165.39,462.80 163.06,461.34 163.42,460.11 C163.68,459.23 164.17,456.47 164.52,453.99 L 165.15 449.49 L 179.32 444.02 C205.09,434.07 240.20,415.62 265.31,398.82 C302.97,373.63 339.03,341.09 366.27,307.73 C371.34,301.52 373.88,299.14 374.97,299.58 C375.81,299.92 379.04,300.70 382.14,301.31 L 387.79 302.42 L 389.37 308.10 C390.24,311.23 392.06,319.81 393.42,327.17 C396.44,343.51 396.45,343.53 400.07,345.03 C403.82,346.58 408.76,344.75 410.07,341.32 C411.04,338.76 407.51,317.25 404.02,304.50 L 402.11 297.50 L 404.30 295.77 C405.51,294.82 406.90,294.03 407.38,294.02 C408.89,293.98 431.65,311.04 443.58,321.15 C460.33,335.36 476.00,350.11 476.00,351.68 C476.00,355.39 462.26,379.37 452.72,392.32 C444.63,403.29 429.93,420.00 424.30,424.61 L 420.07 428.08 L 415.95 425.98 C412.85,424.39 412.00,423.46 412.49,422.19 C412.86,421.26 413.41,411.23 413.73,399.90 C414.29,379.77 414.25,379.25 412.15,377.15 C409.29,374.29 404.56,374.35 401.62,377.29 C399.43,379.47 399.29,380.52 398.68,399.04 C398.33,409.74 397.75,419.52 397.40,420.76 C397.02,422.10 395.69,423.28 394.13,423.65 C386.31,425.52 378.35,432.60 374.56,441.06 C372.25,446.18 371.89,448.19 372.17,454.24 L 372.50 461.38 L 362.45 466.12 C342.42,475.56 316.87,482.63 292.44,485.49 C280.82,486.85 259.23,487.27 250.00,486.32 ZM 66.24 123.00 C66.33,123.00 66.42,123.00 66.52,123.00 C70.35,123.00 70.98,122.62 73.59,118.75 C77.20,113.40 83.29,105.60 84.17,105.19 C84.54,105.02 84.13,103.65 83.26,102.14 C83.19,102.01 83.12,101.88 83.05,101.76 C84.52,104.06 87.28,106.00 89.69,106.00 C91.91,106.00 94.90,103.57 104.49,94.02 L 116.50 82.05 L 121.72 84.64 C128.20,87.85 137.09,88.24 144.71,85.64 C149.76,83.92 158.09,77.05 160.56,72.58 C161.58,70.73 162.11,70.82 174.56,74.97 C191.57,80.63 205.22,86.47 223.29,95.81 L 238.09 103.46 L 237.45 108.58 C237.03,111.95 237.35,115.83 238.41,119.94 L 240.00 126.18 L 227.56 138.14 C215.82,149.42 198.80,168.44 191.13,178.85 L 187.67 183.55 L 181.06 183.17 C172.94,182.71 167.82,184.02 161.61,188.14 C157.91,190.59 153.28,195.88 151.47,199.74 C151.41,199.87 142.84,200.42 132.43,200.98 C106.11,202.37 92.60,203.91 69.36,208.15 L 58.21 210.18 L 51.76 203.72 L 45.31 197.27 L 47.97 188.38 C52.86,172.08 60.23,155.24 69.63,138.90 C72.03,134.72 74.00,130.62 74.00,129.79 C74.00,128.95 73.07,127.08 71.93,125.63 C70.37,123.66 69.02,123.02 66.24,123.00 ZM 104.39 417.75 C70.38,382.61 46.48,330.99 39.54,277.70 C38.69,271.21 38.00,263.31 38.00,260.15 C38.00,254.53 38.07,254.38 41.38,253.18 C50.69,249.81 58.12,240.95 60.11,230.85 C61.17,225.44 61.47,225.01 64.38,224.54 C70.30,223.57 96.53,220.02 109.00,218.50 C115.88,217.65 127.69,216.68 135.25,216.33 L 149.00 215.69 L 149.02 218.09 C149.05,221.16 152.52,228.86 155.13,231.64 L 157.14 233.78 L 154.54 238.92 C144.21,259.31 133.01,292.97 127.58,320.00 C122.39,345.83 121.52,356.09 121.55,391.10 L 121.59 423.70 L 118.31 425.85 C116.50,427.03 114.87,428.00 114.67,428.00 C114.47,428.00 109.85,423.39 104.39,417.75 ZM 386.50 241.26 L 381.50 240.90 L 374.50 227.26 C366.23,211.15 349.74,185.91 337.42,170.50 C332.58,164.45 321.05,151.92 311.81,142.66 L 294.99 125.83 L 296.62 120.25 C297.72,116.47 298.04,112.96 297.61,109.36 L 296.99 104.05 L 302.24 100.97 C316.98,92.33 344.13,80.35 363.13,74.10 L 369.76 71.92 L 375.72 77.88 C380.85,83.01 382.70,84.16 388.93,86.05 C397.79,88.74 403.06,88.26 411.35,84.03 L 417.19 81.05 L 423.59 86.77 C427.12,89.92 430.00,92.86 430.00,93.29 C430.00,93.72 429.01,95.97 427.80,98.29 C424.36,104.88 424.59,116.65 428.31,124.21 C429.89,127.44 433.11,131.68 435.69,133.96 L 440.27 137.99 L 438.53 144.24 C436.18,152.69 428.26,174.06 422.53,187.41 C412.13,211.68 395.65,242.11 393.08,241.82 C392.21,241.71 389.25,241.46 386.50,241.26 ZM 470.80 324.97 C455.78,311.14 441.22,299.18 427.01,289.01 L 415.71 280.92 L 415.90 273.21 C416.12,264.64 414.48,258.62 410.48,253.39 C409.12,251.60 408.00,249.94 408.00,249.69 C408.00,249.45 410.78,244.36 414.18,238.38 C427.67,214.63 442.01,182.04 450.96,154.78 C455.03,142.41 455.22,142.05 458.32,141.52 C458.67,141.46 459.00,141.40 459.32,141.34 C462.35,140.81 464.07,140.51 465.42,141.08 C467.34,141.88 468.53,144.42 471.69,150.50 C498.34,201.85 504.25,264.30 487.84,321.00 C485.43,329.31 484.57,333.43 482.67,333.98 C481.00,334.46 478.54,332.16 473.54,327.51 C472.70,326.73 471.79,325.88 470.80,324.97 ZM 357.55 247.33 C350.43,243.63 329.17,234.44 317.50,230.02 C288.54,219.05 252.74,209.77 223.00,205.52 C216.68,204.62 210.58,203.70 209.47,203.48 C208.31,203.25 206.48,201.23 205.22,198.79 C204.01,196.43 202.49,193.77 201.84,192.88 C200.88,191.54 201.67,189.99 206.44,183.88 C215.96,171.69 230.75,155.47 240.71,146.34 L 250.08 137.73 L 253.79 139.33 C263.84,143.65 270.93,143.81 280.03,139.89 L 285.00 137.75 L 293.60 145.56 C319.72,169.27 346.75,205.18 362.59,237.17 C366.65,245.37 367.17,247.08 366.06,248.42 C364.34,250.50 363.42,250.38 357.55,247.33 ZM 239.46 87.35 C224.24,78.18 201.28,68.01 178.56,60.37 C165.68,56.03 164.04,55.06 164.02,51.77 C163.97,47.01 202.18,33.27 227.17,29.05 C273.41,21.25 317.59,26.35 358.81,44.23 L 368.13 48.27 L 367.46 52.39 C367.09,54.65 366.50,56.77 366.15,57.10 C365.79,57.43 361.00,59.16 355.50,60.94 C340.03,65.96 325.07,72.34 306.45,81.87 L 289.41 90.59 L 285.54 87.78 C275.14,80.24 260.09,80.29 249.49,87.90 L 245.33 90.89 ZM 100.23 76.63 C106.03,70.66 106.71,69.32 105.95,67.90 C105.36,66.80 104.63,62.88 104.33,59.20 C104.63,62.88 105.41,66.89 106.05,68.10 C107.13,70.10 106.64,70.84 100.23,76.63 ZM 82.56 96.73 C83.18,95.01 84.62,92.96 87.13,90.12 C84.96,92.77 83.35,95.07 82.56,96.73 ZM 60.79 125.00 C59.26,126.69 57.45,129.80 54.25,135.50 C57.46,129.80 59.25,126.69 60.79,125.00 Z" fill="rgb(199,239,253)"/>
<path d="M 0.03 370.75 C0.06,233.86 0.12,229.66 1.85,234.67 C2.83,237.51 4.90,241.49 6.45,243.52 C9.38,247.36 16.87,252.67 20.75,253.65 C22.85,254.18 23.00,254.75 23.00,262.36 C23.00,272.50 25.29,292.39 27.93,305.19 C37.69,352.50 61.29,396.29 95.62,430.78 C105.59,440.79 105.82,441.14 104.92,444.27 C100.02,461.35 113.99,480.27 132.59,481.76 C139.41,482.31 147.06,480.31 151.49,476.83 C152.26,476.22 152.83,475.76 153.47,475.52 C155.31,474.85 157.82,475.98 167.92,480.53 L 168.50 480.79 C187.88,489.52 210.03,495.98 233.20,499.66 C248.81,502.13 286.81,502.16 302.54,499.71 C326.01,496.06 349.93,488.92 368.88,479.93 C374.59,477.22 379.61,475.00 380.04,475.00 C380.47,475.00 383.19,476.56 386.09,478.47 C401.21,488.42 421.07,482.97 428.92,466.69 C432.73,458.78 433.49,453.02 431.63,446.01 L 430.17 440.53 L 442.35 428.01 C481.61,387.67 505.55,336.30 511.32,280.00 C511.32,279.97 511.33,279.95 511.33,279.95 C511.53,279.95 511.75,330.66 511.84,394.25 L 512.00 512.00 L 0.00 512.00 ZM 510.62 227.94 C509.19,210.85 502.28,182.84 494.94,164.34 C493.23,160.05 488.95,150.85 485.42,143.91 L 479.00 131.29 L 482.24 125.01 C485.06,119.53 485.47,117.76 485.45,111.11 C485.44,104.38 485.04,102.77 482.03,97.17 C474.83,83.75 461.83,78.24 446.48,82.11 L 442.07 83.22 L 434.05 75.86 C426.54,68.98 426.07,68.30 426.76,65.50 C428.19,59.69 427.44,50.70 425.07,45.30 C421.90,38.06 413.85,30.63 406.97,28.58 C397.09,25.65 388.99,26.72 380.56,32.06 L 375.69 35.15 L 369.09 32.14 C333.35,15.81 291.71,8.23 252.74,10.95 C220.95,13.17 197.61,18.73 169.83,30.69 L 157.17 36.15 L 151.99 32.59 C145.44,28.08 140.13,26.65 132.31,27.27 C115.38,28.61 103.01,42.73 104.33,59.20 C104.63,62.88 105.36,66.80 105.95,67.90 C106.71,69.32 106.03,70.66 100.23,76.63 C100.18,76.68 100.13,76.72 100.08,76.76 C95.00,81.36 90.41,86.14 87.13,90.12 C84.62,92.96 83.18,95.01 82.56,96.73 C82.19,97.50 82.00,98.13 82.00,98.60 C82.00,99.63 82.40,100.73 83.05,101.76 C83.12,101.88 83.19,102.01 83.26,102.14 C84.13,103.65 84.54,105.02 84.17,105.19 C83.29,105.60 77.20,113.40 73.59,118.75 C70.98,122.62 70.35,123.00 66.52,123.00 C66.42,123.00 66.33,123.00 66.24,123.00 C66.19,123.00 66.13,123.00 66.08,123.00 C63.73,123.00 62.43,123.18 60.79,125.00 C59.25,126.69 57.46,129.80 54.25,135.50 C46.80,148.73 40.35,163.63 34.99,180.00 L 30.24 194.50 L 25.07 195.25 C13.67,196.90 5.19,204.51 1.40,216.50 C0.36,219.78 0.12,200.66 0.07,110.25 L 0.00 0.00 L 512.00 0.00 L 512.00 118.00 C512.00,182.90 511.84,236.00 511.64,236.00 C511.45,236.00 510.98,232.37 510.62,227.94 Z" fill="rgb(254,254,254)"/>
<path d="M 394.24 466.01 C388.89,462.75 386.83,458.48 387.27,451.61 C387.62,446.20 387.99,445.40 391.79,441.86 C395.63,438.27 396.35,438.00 401.88,438.00 C406.86,438.00 408.36,438.43 410.96,440.62 C422.42,450.26 416.61,467.99 402.00,467.99 C399.27,467.99 396.22,467.21 394.24,466.01 ZM 127.12 465.12 C122.62,462.72 119.01,456.61 119.01,451.40 C119.00,443.99 125.46,437.11 133.14,436.35 C141.79,435.49 149.00,442.65 149.00,452.09 C149.00,463.31 137.07,470.41 127.12,465.12 ZM 379.42 285.04 C368.71,279.59 368.24,264.21 378.60,258.27 C388.84,252.40 401.00,259.42 401.00,271.20 C401.00,273.89 400.33,277.39 399.52,278.97 C395.95,285.86 386.60,288.69 379.42,285.04 ZM 23.02 238.15 C18.26,235.60 15.87,232.05 15.26,226.63 C13.90,214.53 25.36,205.97 36.41,210.86 C42.28,213.45 44.99,217.79 45.00,224.60 C45.00,236.32 33.19,243.60 23.02,238.15 ZM 170.98 226.18 C167.17,224.18 162.99,217.28 163.02,213.04 C163.06,208.73 166.67,202.17 170.19,200.02 C174.58,197.35 182.38,197.32 186.71,199.96 C190.37,202.20 194.01,208.58 193.98,212.71 C193.94,217.24 190.41,223.78 186.81,225.98 C182.63,228.52 175.64,228.61 170.98,226.18 ZM 261.00 125.79 C252.76,121.59 249.86,112.58 254.24,104.78 C261.70,91.51 282.38,96.68 282.38,111.82 C282.38,123.68 271.20,130.99 261.00,125.79 ZM 446.90 123.73 C440.32,119.33 438.02,109.75 441.99,103.24 C449.86,90.35 469.98,95.78 470.00,110.80 C470.00,115.98 468.14,119.87 463.96,123.38 C459.77,126.90 451.89,127.07 446.90,123.73 ZM 129.62 72.00 C122.89,69.91 118.54,63.10 119.25,55.76 C121.09,36.63 149.00,38.06 149.00,57.28 C149.00,63.06 146.26,68.30 142.12,70.44 C138.35,72.39 133.02,73.05 129.62,72.00 ZM 387.94 69.30 C376.82,59.94 382.71,41.99 396.90,42.00 C405.68,42.01 411.99,48.41 412.00,57.30 C412.00,66.84 406.69,71.99 396.83,72.00 C392.12,72.00 390.61,71.54 387.94,69.30 Z" fill="rgb(219,125,96)"/>
</g>
</svg>